<svg xmlns="http://www.w3.org/2000/svg" xmlns:xlink="http://www.w3.org/1999/xlink"><defs><symbol viewBox="0 0 32 32" fill-rule="evenodd" stroke-linecap="round" stroke-linejoin="round" id="arrow-24">
  <path d="m22 8 8 8-8 8m8-8H2" fill="none" stroke="currentColor" stroke-width="2" />
</symbol><symbol viewBox="0 0 24 24" fill-rule="evenodd" stroke-linecap="round" stroke-linejoin="round" stroke-miterlimit="1.5" id="arrow-24">
  <path d="M3 12h17M15 18l6-6-6-6" stroke="currentColor" fill="none" stroke-width="2" />
</symbol><symbol viewBox="0 0 40 40" fill-rule="evenodd" stroke-linecap="round" id="arrow-40">
  <path d="m27 10 10 10-10 10" fill="none" stroke="currentColor" stroke-width="2" vector-effect="non-scaling-stroke" />
  <path d="M3 20h34" fill="none" stroke="currentColor" stroke-width="2" vector-effect="non-scaling-stroke" />
</symbol><symbol viewBox="0 0 24 24" id="avatar-24">
  <path fill="currentColor" d="M2 24s-2 0-2-2 2-8 12-8 12 6 12 8-2 2-2 2H2Zm10-12a6 6 0 1 0 0-12 6 6 0 0 0 0 12Z" />
</symbol><symbol viewBox="0 0 24 24" fill-rule="evenodd" stroke-linecap="round" stroke-linejoin="round" id="chevron-24">
  <path d="m9 19 7-7-7-7" fill="none" stroke="currentColor" stroke-width="2" />
</symbol><symbol fill="none" viewBox="0 0 24 24" id="cross-24"><g clip-rule="evenodd" fill="currentColor" fill-rule="evenodd"><path d="m3.51469 3.51472c.39053-.39052 1.02369-.39052 1.41422 0l15.55639 15.55638c.3905.3905.3905 1.0237 0 1.4142-.3906.3905-1.0237.3905-1.4143 0l-15.55631-15.55636c-.39052-.39053-.39052-1.02369 0-1.41422z" /><path d="m20.4853 3.51469c.3905.39053.3905 1.02369 0 1.41422l-15.55637 15.55639c-.39053.3905-1.02369.3905-1.41422 0-.39052-.3906-.39052-1.0237 0-1.4143l15.55639-15.55631c.3905-.39052 1.0237-.39052 1.4142 0z" /></g></symbol><symbol viewBox="0 0 24 24" fill="none" id="eye-24">
<path d="M12 4C7 4 2.73 7.11 1 11.5C2.73 15.89 7 19 12 19C17 19 21.27 15.89 23 11.5C21.27 7.11 17 4 12 4ZM12 16.5C9.24 16.5 7 14.26 7 11.5C7 8.74 9.24 6.5 12 6.5C14.76 6.5 17 8.74 17 11.5C17 14.26 14.76 16.5 12 16.5ZM12 8.5C10.34 8.5 9 9.84 9 11.5C9 13.16 10.34 14.5 12 14.5C13.66 14.5 15 13.16 15 11.5C15 9.84 13.66 8.5 12 8.5Z" fill="currentColor" />
</symbol><symbol fill="none" viewBox="0 0 24 24" id="facebook-24">
  <path d="m13.6476 24h-3.95007c-.65979 0-1.1965-.5222-1.1965-1.1642v-8.6689h-2.30454c-.65978 0-1.19649-.5224-1.19649-1.1642v-3.71468c0-.64196.53671-1.16418 1.19649-1.16418h2.30454v-1.86017c0-1.84442.59524-3.41363 1.72117-4.53772 1.131-1.129209 2.7116-1.72595 4.5709-1.72595l3.0125.00476072c.6586.00109866 1.1944.52331528 1.1944 1.16418928v3.44897c0 .64197-.5365 1.16418-1.1961 1.16418l-2.0283.00074c-.6186 0-.7761.12066-.8098.15765-.0555.06134-.1215.23474-.1215.71356v1.46961h2.8072c.2113 0 .416.05072.592.1463.3796.20636.6155.59656.6155 1.01825l-.0015 3.71469c0 .6416-.5367 1.1638-1.1965 1.1638h-2.8167v8.6691c0 .642-.5369 1.1642-1.1967 1.1642zm-3.70053-1.407h3.45093v-9.056c0-.4287.3585-.7773.7989-.7773h3.2146l.0013-3.22888h-3.2161c-.4403 0-.7987-.34863-.7987-.77728v-2.09949c0-.54968.0574-1.1748.4839-1.64465.5152-.56799 1.3273-.63355 1.8933-.63355l1.7788-.00073v-2.96374l-2.7621-.0044c-2.988 0-4.84483 1.86109-4.84483 4.85669v2.48987c0 .42847-.35831.77728-.79867.77728h-2.70237v3.22888h2.70237c.44036 0 .79867.3486.79867.7773zm7.85573-21.18126h.0001z" fill="currentColor" />
</symbol><symbol fill="currentColor" class="bi bi-file-earmark-arrow-down" viewBox="0 0 16 16" id="file-earmark-arrow-down">
  <path d="M8.5 6.5a.5.5 0 0 0-1 0v3.793L6.354 9.146a.5.5 0 1 0-.708.708l2 2a.5.5 0 0 0 .708 0l2-2a.5.5 0 0 0-.708-.708L8.5 10.293V6.5z" />
  <path d="M14 14V4.5L9.5 0H4a2 2 0 0 0-2 2v12a2 2 0 0 0 2 2h8a2 2 0 0 0 2-2zM9.5 3A1.5 1.5 0 0 0 11 4.5h2V14a1 1 0 0 1-1 1H4a1 1 0 0 1-1-1V2a1 1 0 0 1 1-1h5.5v2z" />
</symbol><symbol fill="currentColor" class="bi bi-file-earmark-image" viewBox="0 0 16 16" id="file-earmark-image">
  <path d="M6.502 7a1.5 1.5 0 1 0 0-3 1.5 1.5 0 0 0 0 3z" />
  <path d="M14 14a2 2 0 0 1-2 2H4a2 2 0 0 1-2-2V2a2 2 0 0 1 2-2h5.5L14 4.5V14zM4 1a1 1 0 0 0-1 1v10l2.224-2.224a.5.5 0 0 1 .61-.075L8 11l2.157-3.02a.5.5 0 0 1 .76-.063L13 10V4.5h-2A1.5 1.5 0 0 1 9.5 3V1H4z" />
</symbol><symbol fill="currentColor" class="bi bi-file-earmark-music" viewBox="0 0 16 16" id="file-earmark-music">
  <path d="M11 6.64a1 1 0 0 0-1.243-.97l-1 .25A1 1 0 0 0 8 6.89v4.306A2.572 2.572 0 0 0 7 11c-.5 0-.974.134-1.338.377-.36.24-.662.628-.662 1.123s.301.883.662 1.123c.364.243.839.377 1.338.377.5 0 .974-.134 1.338-.377.36-.24.662-.628.662-1.123V8.89l2-.5V6.64z" />
  <path d="M14 14V4.5L9.5 0H4a2 2 0 0 0-2 2v12a2 2 0 0 0 2 2h8a2 2 0 0 0 2-2zM9.5 3A1.5 1.5 0 0 0 11 4.5h2V14a1 1 0 0 1-1 1H4a1 1 0 0 1-1-1V2a1 1 0 0 1 1-1h5.5v2z" />
</symbol><symbol fill="currentColor" class="bi bi-file-earmark-pdf" viewBox="0 0 16 16" id="file-earmark-pdf">
  <path d="M14 14V4.5L9.5 0H4a2 2 0 0 0-2 2v12a2 2 0 0 0 2 2h8a2 2 0 0 0 2-2zM9.5 3A1.5 1.5 0 0 0 11 4.5h2V14a1 1 0 0 1-1 1H4a1 1 0 0 1-1-1V2a1 1 0 0 1 1-1h5.5v2z" />
  <path d="M4.603 14.087a.81.81 0 0 1-.438-.42c-.195-.388-.13-.776.08-1.102.198-.307.526-.568.897-.787a7.68 7.68 0 0 1 1.482-.645 19.697 19.697 0 0 0 1.062-2.227 7.269 7.269 0 0 1-.43-1.295c-.086-.4-.119-.796-.046-1.136.075-.354.274-.672.65-.823.192-.077.4-.12.602-.077a.7.7 0 0 1 .477.365c.088.164.12.356.127.538.007.188-.012.396-.047.614-.084.51-.27 1.134-.52 1.794a10.954 10.954 0 0 0 .98 1.686 5.753 5.753 0 0 1 1.334.05c.364.066.734.195.96.465.12.144.193.32.2.518.007.192-.047.382-.138.563a1.04 1.04 0 0 1-.354.416.856.856 0 0 1-.51.138c-.331-.014-.654-.196-.933-.417a5.712 5.712 0 0 1-.911-.95 11.651 11.651 0 0 0-1.997.406 11.307 11.307 0 0 1-1.02 1.51c-.292.35-.609.656-.927.787a.793.793 0 0 1-.58.029zm1.379-1.901c-.166.076-.32.156-.459.238-.328.194-.541.383-.647.547-.094.145-.096.25-.04.361.01.022.02.036.026.044a.266.266 0 0 0 .035-.012c.137-.056.355-.235.635-.572a8.18 8.18 0 0 0 .45-.606zm1.64-1.33a12.71 12.71 0 0 1 1.01-.193 11.744 11.744 0 0 1-.51-.858 20.801 20.801 0 0 1-.5 1.05zm2.446.45c.15.163.296.3.435.41.24.19.407.253.498.256a.107.107 0 0 0 .07-.015.307.307 0 0 0 .094-.125.436.436 0 0 0 .059-.2.095.095 0 0 0-.026-.063c-.052-.062-.2-.152-.518-.209a3.876 3.876 0 0 0-.612-.053zM8.078 7.8a6.7 6.7 0 0 0 .2-.828c.031-.188.043-.343.038-.465a.613.613 0 0 0-.032-.198.517.517 0 0 0-.145.04c-.087.035-.158.106-.196.283-.04.192-.03.469.046.822.024.111.054.227.09.346z" />
</symbol><symbol fill="currentColor" class="bi bi-file-earmark-play" viewBox="0 0 16 16" id="file-earmark-play">
  <path d="M6 6.883v4.234a.5.5 0 0 0 .757.429l3.528-2.117a.5.5 0 0 0 0-.858L6.757 6.454a.5.5 0 0 0-.757.43z" />
  <path d="M14 14V4.5L9.5 0H4a2 2 0 0 0-2 2v12a2 2 0 0 0 2 2h8a2 2 0 0 0 2-2zM9.5 3A1.5 1.5 0 0 0 11 4.5h2V14a1 1 0 0 1-1 1H4a1 1 0 0 1-1-1V2a1 1 0 0 1 1-1h5.5v2z" />
</symbol><symbol fill="currentColor" class="bi bi-file-earmark-text" viewBox="0 0 16 16" id="file-earmark-text">
  <path d="M5.5 7a.5.5 0 0 0 0 1h5a.5.5 0 0 0 0-1h-5zM5 9.5a.5.5 0 0 1 .5-.5h5a.5.5 0 0 1 0 1h-5a.5.5 0 0 1-.5-.5zm0 2a.5.5 0 0 1 .5-.5h2a.5.5 0 0 1 0 1h-2a.5.5 0 0 1-.5-.5z" />
  <path d="M9.5 0H4a2 2 0 0 0-2 2v12a2 2 0 0 0 2 2h8a2 2 0 0 0 2-2V4.5L9.5 0zm0 1v2A1.5 1.5 0 0 0 11 4.5h2V14a1 1 0 0 1-1 1H4a1 1 0 0 1-1-1V2a1 1 0 0 1 1-1h5.5z" />
</symbol><symbol fill="currentColor" class="bi bi-file-earmark-zip" viewBox="0 0 16 16" id="file-earmark-zip">
  <path d="M5 7.5a1 1 0 0 1 1-1h1a1 1 0 0 1 1 1v.938l.4 1.599a1 1 0 0 1-.416 1.074l-.93.62a1 1 0 0 1-1.11 0l-.929-.62a1 1 0 0 1-.415-1.074L5 8.438V7.5zm2 0H6v.938a1 1 0 0 1-.03.243l-.4 1.598.93.62.929-.62-.4-1.598A1 1 0 0 1 7 8.438V7.5z" />
  <path d="M14 4.5V14a2 2 0 0 1-2 2H4a2 2 0 0 1-2-2V2a2 2 0 0 1 2-2h5.5L14 4.5zm-3 0A1.5 1.5 0 0 1 9.5 3V1h-2v1h-1v1h1v1h-1v1h1v1H6V5H5V4h1V3H5V2h1V1H4a1 1 0 0 0-1 1v12a1 1 0 0 0 1 1h8a1 1 0 0 0 1-1V4.5h-2z" />
</symbol><symbol viewBox="0 0 24 24" fill="none" id="instagram-24">
<path d="M17.5034 0H6.49657C2.9143 0 0 2.9143 0 6.49657V17.5036C0 21.0857 2.9143 24 6.49657 24H17.5036C21.0857 24 24 21.0857 24 17.5036V6.49657C24 2.9143 21.0857 0 17.5034 0V0ZM22.593 17.5036C22.593 20.3098 20.3098 22.593 17.5034 22.593H6.49657C3.69012 22.593 1.40698 20.3098 1.40698 17.5036V6.49657C1.40698 3.69012 3.69012 1.40698 6.49657 1.40698H17.5036C20.3098 1.40698 22.593 3.69012 22.593 6.49657V17.5036Z" fill="currentColor" />
<path d="M12 5.43774C8.38145 5.43774 5.43767 8.38153 5.43767 12C5.43767 15.6186 8.38145 18.5624 12 18.5624C15.6185 18.5624 18.5623 15.6186 18.5623 12C18.5623 8.38153 15.6185 5.43774 12 5.43774ZM12 17.1554C9.15745 17.1554 6.84465 14.8428 6.84465 12C6.84465 9.15752 9.15745 6.84472 12 6.84472C14.8427 6.84472 17.1553 9.15752 17.1553 12C17.1553 14.8428 14.8427 17.1554 12 17.1554Z" fill="currentColor" />
<path d="M18.7192 3.10718C17.6499 3.10718 16.7801 3.97711 16.7801 5.04626C16.7801 6.11559 17.6499 6.98553 18.7192 6.98553C19.7885 6.98553 20.6585 6.11559 20.6585 5.04626C20.6585 3.97693 19.7885 3.10718 18.7192 3.10718ZM18.7192 5.57836C18.4259 5.57836 18.1871 5.3396 18.1871 5.04626C18.1871 4.75274 18.4259 4.51416 18.7192 4.51416C19.0127 4.51416 19.2515 4.75274 19.2515 5.04626C19.2515 5.3396 19.0127 5.57836 18.7192 5.57836Z" fill="currentColor" />
</symbol><symbol fill="none" viewBox="0 0 24 24" id="linkedin-24">
<path d="m6.20435 7.10742h-4.0459c-.45355 0-.82251.36896-.82251.82251v15.24777c0 .4533.36896.8223.82251.8223h4.0459c.45336 0 .82232-.369.82232-.8223v-15.24777c0-.45355-.36896-.82251-.82232-.82251zm-.58594 15.48428h-2.87421v-14.07601h2.87421z" fill="currentColor" />
<path d="m4.1814 0c-1.58203 0-2.8689 1.28687-2.8689 2.86871 0 1.58203 1.28687 2.8689 2.8689 2.8689 1.58166 0 2.86871-1.28687 2.86871-2.8689 0-1.58184-1.28687-2.86871-2.86871-2.86871zm0 4.32935c-.80548 0-1.46064-.65516-1.46064-1.46064 0-.80529.65516-1.46045 1.46064-1.46045.80529 0 1.46045.65516 1.46045 1.46045 0 .8053-.65516 1.46064-1.46045 1.46064z" /><path d="m20.1116 8.89514c-.9672-.80731-2.1967-1.23907-3.4609-1.21564-.7852.01447-1.5524.2038-2.2476.54657v-.33288c0-.43378-.3518-.78552-.7855-.78552h-4.11955c-.43378 0-.78553.35174-.78553.78552v15.32131c0 .434.35175.7856.78553.7856h4.20085c.3889 0 .7042-.3153.7042-.7041v-9.1349c0-.7821.6119-1.4438 1.3934-1.4671.8123-.024 1.4806.6295 1.4806 1.4365v9.1802c0 .3806.3087.6894.6894.6894h4.0373c.3807 0 .6894-.3088.6894-.6894v-8.901c0-2.135-.941-4.1451-2.5816-5.51456zm1.1733 13.69666h-2.5994v-8.4613c0-1.5689-1.2764-2.8453-2.8454-2.8453-1.5689 0-2.8453 1.2764-2.8453 2.8453v8.4613h-2.874v-14.07605h2.874v1.02337h.0009c-.0002.1659.0575.33252.1762.46678.2576.2911.7027.3182.9939.0604.6938-.61415 1.5855-.96169 2.5109-.9789.9263-.01758 1.8254.29846 2.5325.8888 1.3193 1.1012 2.0757 2.7171 2.0757 4.4335z" fill="currentColor" />
</symbol><symbol viewBox="0 0 24 24" id="menu-24">
  <path d="M2 6h20M2 12h20M2 18h20" fill="none" stroke="currentColor" stroke-width="2" stroke-linecap="round" />
</symbol><symbol fill="none" viewBox="0 0 24 24" id="plus-24"><g fill="#fff" fill-rule="evenodd" clip-rule="evenodd"><path d="M0 12c0-.6.49-1.09 1.09-1.09h21.82a1.09 1.09 0 1 1 0 2.18H1.09A1.09 1.09 0 0 1 0 12z" /><path d="M12 0c.6 0 1.09.49 1.09 1.09v21.82a1.09 1.09 0 1 1-2.18 0V1.09C10.91.49 11.4 0 12 0z" /></g></symbol><symbol viewBox="0 0 24 24" fill="none" id="success-24">
    <path fill-rule="evenodd" clip-rule="evenodd" d="M12 1.5C9.21523 1.5 6.54451 2.60625 4.57538 4.57538C2.60625 6.54451 1.5 9.21523 1.5 12C1.5 14.7848 2.60625 17.4555 4.57538 19.4246C6.54451 21.3938 9.21523 22.5 12 22.5C14.7848 22.5 17.4555 21.3938 19.4246 19.4246C21.3938 17.4555 22.5 14.7848 22.5 12C22.5 9.21523 21.3938 6.54451 19.4246 4.57538C17.4555 2.60625 14.7848 1.5 12 1.5ZM0 12C-2.34822e-08 10.4241 0.310389 8.86371 0.913446 7.4078C1.5165 5.95189 2.40042 4.62902 3.51472 3.51472C4.62902 2.40042 5.95189 1.5165 7.4078 0.913446C8.86371 0.310389 10.4241 0 12 0C13.5759 0 15.1363 0.310389 16.5922 0.913446C18.0481 1.5165 19.371 2.40042 20.4853 3.51472C21.5996 4.62902 22.4835 5.95189 23.0866 7.4078C23.6896 8.86371 24 10.4241 24 12C24 15.1826 22.7357 18.2348 20.4853 20.4853C18.2348 22.7357 15.1826 24 12 24C8.8174 24 5.76516 22.7357 3.51472 20.4853C1.26428 18.2348 4.74244e-08 15.1826 0 12Z" fill="currentColor" />
    <path d="M10.1696 14.1959L17.0478 7.31982C17.2668 7.11549 17.5313 7 17.8688 7C18.1972 7 18.4618 7.11549 18.6898 7.31982C18.8997 7.53303 19 7.80843 19 8.13714C19 8.47472 18.8905 8.74124 18.6807 8.95445L10.9906 16.6479C10.8863 16.7588 10.7595 16.8475 10.6181 16.9081C10.4768 16.9687 10.324 17 10.1696 17C10.0151 17 9.86239 16.9687 9.72104 16.9081C9.57969 16.8475 9.45285 16.7588 9.34858 16.6479L6.31997 13.6185C6.21358 13.5098 6.13054 13.3815 6.07571 13.2412C6.02089 13.1008 5.99538 12.9512 6.00069 12.8012C6.00069 12.4636 6.10103 12.1971 6.31997 11.9839C6.52978 11.7795 6.80345 11.664 7.14098 11.664C7.46938 11.664 7.73393 11.7795 7.95286 11.9839L10.1696 14.2048V14.1959Z" fill="currentColor" />
</symbol><symbol viewBox="0 0 24 24" fill="none" id="trashcan-24">
<path d="M19.875 3H15.75V2.25C15.75 1.00922 14.7408 0 13.5 0H10.5C9.25922 0 8.25 1.00922 8.25 2.25V3H4.125C3.09094 3 2.25 3.84094 2.25 4.875V7.5C2.25 7.69891 2.32902 7.88968 2.46967 8.03033C2.61032 8.17098 2.80109 8.25 3 8.25H3.40969L4.05797 21.8569C4.08475 22.4346 4.33321 22.9797 4.75167 23.3789C5.17014 23.778 5.72638 24.0005 6.30469 24H17.6953C18.2737 24.0006 18.8301 23.7782 19.2486 23.379C19.6672 22.9798 19.9157 22.4346 19.9425 21.8569L20.5903 8.25H21C21.1989 8.25 21.3897 8.17098 21.5303 8.03033C21.671 7.88968 21.75 7.69891 21.75 7.5V4.875C21.75 3.84094 20.9091 3 19.875 3ZM9.75 2.25C9.75 1.83656 10.0866 1.5 10.5 1.5H13.5C13.9134 1.5 14.25 1.83656 14.25 2.25V3H9.75V2.25ZM3.75 4.875C3.75 4.77554 3.78951 4.68016 3.85984 4.60984C3.93016 4.53951 4.02554 4.5 4.125 4.5H19.875C19.9745 4.5 20.0698 4.53951 20.1402 4.60984C20.2105 4.68016 20.25 4.77554 20.25 4.875V6.75H3.75V4.875ZM18.4439 21.7856C18.435 21.9782 18.3521 22.1599 18.2126 22.293C18.0731 22.4261 17.8876 22.5002 17.6948 22.5H6.30469C5.90391 22.5 5.57484 22.1859 5.55562 21.7856L4.91156 8.25H19.0884L18.4439 21.7856Z" fill="currentColor" />
<path d="M12 21C12.1989 21 12.3897 20.921 12.5303 20.7803C12.671 20.6397 12.75 20.4489 12.75 20.25V10.5C12.75 10.3011 12.671 10.1103 12.5303 9.96967C12.3897 9.82902 12.1989 9.75 12 9.75C11.8011 9.75 11.6103 9.82902 11.4697 9.96967C11.329 10.1103 11.25 10.3011 11.25 10.5V20.25C11.25 20.4489 11.329 20.6397 11.4697 20.7803C11.6103 20.921 11.8011 21 12 21ZM15.75 21C15.9489 21 16.1397 20.921 16.2803 20.7803C16.421 20.6397 16.5 20.4489 16.5 20.25V10.5C16.5 10.3011 16.421 10.1103 16.2803 9.96967C16.1397 9.82902 15.9489 9.75 15.75 9.75C15.5511 9.75 15.3603 9.82902 15.2197 9.96967C15.079 10.1103 15 10.3011 15 10.5V20.25C15 20.4489 15.079 20.6397 15.2197 20.7803C15.3603 20.921 15.5511 21 15.75 21ZM8.25 21C8.44891 21 8.63968 20.921 8.78033 20.7803C8.92098 20.6397 9 20.4489 9 20.25V10.5C9 10.3011 8.92098 10.1103 8.78033 9.96967C8.63968 9.82902 8.44891 9.75 8.25 9.75C8.05109 9.75 7.86032 9.82902 7.71967 9.96967C7.57902 10.1103 7.5 10.3011 7.5 10.5V20.25C7.5 20.4489 7.57902 20.6397 7.71967 20.7803C7.86032 20.921 8.05109 21 8.25 21Z" fill="currentColor" />
</symbol><symbol viewBox="0 0 24 24" id="upload-24">
  <path fill="currentColor" d="M7.647 18.353h8.47v-8.47h5.648L11.882 0 2 9.882h5.647v8.47ZM2 21.176h19.765V24H2v-2.823Z" />
</symbol><symbol viewBox="0 0 24 24" fill="none" id="xing-24">
  <path d="M5.59149 16.0737H3.13733C2.63159 16.0737 2.17841 15.8123 1.92499 15.3745C1.67157 14.9368 1.67084 14.4135 1.92279 13.975L5.31391 8.07349L3.75989 4.77155C3.55444 4.33521 3.58612 3.83167 3.84448 3.42444C4.10285 3.01721 4.54486 2.77423 5.02716 2.77423H7.5586C8.09674 2.77423 8.59369 3.08844 8.82422 3.57477L10.6772 7.48187C10.875 7.89862 10.8549 8.3855 10.6236 8.78448L6.80347 15.3754C6.55371 15.806 6.08936 16.0737 5.59149 16.0737ZM3.15308 14.6636L5.58637 14.6638L9.40137 8.08154L7.55292 4.18414H5.04163L6.60919 7.51483C6.79505 7.901 6.77875 8.35309 6.56543 8.72516L3.15308 14.6636Z" fill="currentColor" />
  <path d="M18.5855 24H16.1336C15.6375 24 15.1741 23.7339 14.924 23.3057L10.2877 15.3675C9.87337 14.6581 9.86532 13.7721 10.2665 13.0551H10.2667L17.1754 0.716492C17.4228 0.274475 17.891 0 18.3975 0H20.9042C21.4066 0 21.8585 0.258728 22.1127 0.692322C22.3668 1.12573 22.372 1.6463 22.1266 2.08484L15.3371 14.2169L19.7968 21.8958C20.0517 22.3343 20.0526 22.8585 19.7995 23.2982C19.5465 23.7376 19.0927 24 18.5855 24ZM16.1389 22.5901H18.5698L14.0866 14.8709C13.8568 14.475 13.853 13.9814 14.0766 13.5826L20.8888 1.40991H18.4028L11.4968 13.7439C11.3384 14.0268 11.3417 14.3765 11.5052 14.6565L16.1389 22.5901Z" fill="currentColor" />
</symbol><symbol viewBox="0 0 24 24" fill="none" id="youtube-24">
<path d="M15.6941 10.9214L10.3919 8.02027C10.0871 7.85346 9.7267 7.85968 9.42788 8.03675C9.12887 8.21399 8.95052 8.5271 8.95052 8.87463V14.6271C8.95052 14.9729 9.12777 15.2855 9.42476 15.4629C9.57985 15.5556 9.75179 15.6021 9.92409 15.6021C10.0819 15.6021 10.2401 15.5631 10.3857 15.4847L15.688 12.6336C16.0028 12.4642 16.1993 12.137 16.2007 11.7794C16.202 11.4218 16.0079 11.0931 15.6941 10.9214ZM10.357 13.9034V9.60412L14.3197 11.7724L10.357 13.9034Z" fill="currentColor" />
<path d="M23.8234 7.29033L23.8223 7.27934C23.802 7.08617 23.5996 5.36791 22.7643 4.49395C21.7988 3.466 20.7042 3.34112 20.1778 3.28125C20.1342 3.27631 20.0943 3.27173 20.0586 3.26697L20.0166 3.26257C16.8438 3.03186 12.0521 3.00037 12.0042 3.00018L12 3L11.9957 3.00018C11.9478 3.00037 7.1561 3.03186 3.9547 3.26257L3.9124 3.26697C3.87834 3.27154 3.84081 3.27576 3.79997 3.28052C3.27959 3.34057 2.19671 3.46564 1.22845 4.53076C0.43286 5.39538 0.20288 7.07683 0.17926 7.26579L0.176513 7.29033C0.169372 7.37071 0 9.28434 0 11.2055V13.0014C0 14.9225 0.169372 16.8361 0.176513 16.9167L0.177795 16.9288C0.198119 17.1188 0.400267 18.8056 1.23175 19.6799C2.13958 20.6735 3.28746 20.8049 3.90489 20.8756C4.00249 20.8868 4.08653 20.8963 4.14384 20.9064L4.19932 20.9141C6.03129 21.0884 11.7751 21.1742 12.0186 21.1777L12.026 21.1779L12.0333 21.1777C12.0813 21.1775 16.8727 21.146 20.0456 20.9153L20.0875 20.9109C20.1276 20.9056 20.1726 20.9009 20.2221 20.8957C20.7395 20.8408 21.8166 20.7267 22.7715 19.6761C23.567 18.8113 23.7972 17.1298 23.8206 16.941L23.8234 16.9165C23.8305 16.8359 24.0001 14.9225 24.0001 13.0014V11.2055C23.9999 9.28434 23.8305 7.37089 23.8234 7.29033ZM22.5935 13.0014C22.5935 14.7795 22.4382 16.6107 22.4236 16.7788C22.3639 17.2419 22.1213 18.3057 21.7336 18.7271C21.136 19.3846 20.522 19.4498 20.0738 19.4972C20.0196 19.5029 19.9694 19.5084 19.924 19.514C16.8552 19.736 12.2444 19.77 12.032 19.7713C11.7938 19.7678 6.13401 19.6812 4.35789 19.5162C4.26689 19.5014 4.16856 19.49 4.06493 19.4783C3.53923 19.4181 2.81963 19.3357 2.26629 18.7271L2.25329 18.7131C1.87243 18.3163 1.63677 17.3215 1.5769 16.7843C1.56573 16.6572 1.40643 14.8044 1.40643 13.0014V11.2055C1.40643 9.42936 1.56133 7.60014 1.57635 7.42857C1.64758 6.8831 1.89477 5.88372 2.26629 5.47979C2.88225 4.8023 3.53172 4.72723 3.96129 4.67761C4.0023 4.67285 4.04057 4.66845 4.07591 4.66387C7.18942 4.44085 11.8333 4.40771 12 4.40643C12.1666 4.40753 16.8088 4.44085 19.8947 4.66387C19.9326 4.66863 19.974 4.67339 20.0185 4.67852C20.4603 4.72888 21.1281 4.80505 21.7409 5.45873L21.7466 5.46477C22.1275 5.86156 22.3631 6.87376 22.423 7.4218C22.4336 7.54173 22.5935 9.3986 22.5935 11.2055V13.0014Z" fill="currentColor" />
</symbol></defs></svg>